<svg width="74" height="74" viewBox="0 0 74 74" fill="none" xmlns="http://www.w3.org/2000/svg">
<g clip-path="url(#clip0_134_720)">
<path d="M14.0344 51.0344C14.0344 63.7181 24.3165 74 37 74C49.6835 74 59.9656 63.7181 59.9656 51.0344C59.9656 38.2758 53.5863 28.0689 57.8664 19.1378C57.8664 19.1378 51.0344 20.4138 47.207 30.6206C47.207 30.6206 34.4483 17.8619 39.7789 -0.00012207C39.7789 -0.00012207 26.7932 5.10328 28.1512 21.6895C29.3159 35.9123 26.7932 38.2758 26.7932 38.2758C26.7932 26.7931 17.8157 21.6895 17.8157 21.6895C20.4137 35.7241 14.0344 39.5517 14.0344 51.0344Z" fill="#FFB446"/>
<path d="M53.5771 56.4732C53.5771 66.0258 46.2013 74.1806 36.6505 73.9964C27.6624 73.8232 20.9751 66.9846 21.6898 58.0515C22.0088 54.0645 25.0389 47.6054 29.9829 41.0666L33.2789 43.0602C33.1724 34.9799 37 24.2413 37 24.2413C39.5143 35.5557 53.5771 38.4884 53.5771 56.4732Z" fill="#FFDC64"/>
<path d="M30.6206 48.4827C29.3447 56.138 26.793 58.925 26.793 63.7931C26.793 68.8966 31.3629 74 36.9999 74C42.6777 74 47.2225 69.361 47.2067 63.6832C47.1641 48.434 38.2758 40.8276 38.2758 40.8276C39.5518 48.4829 35.7241 52.3104 35.7241 52.3104C34.1297 49.9189 30.6206 48.4827 30.6206 48.4827Z" fill="white"/>
</g>
<defs>
<clipPath id="clip0_134_720">
<rect width="74" height="74" fill="white"/>
</clipPath>
</defs>
</svg>
