<?xml version="1.0" encoding="UTF-8"?>
<svg id="Layer_1" data-name="Layer 1" xmlns="http://www.w3.org/2000/svg" viewBox="0 0 133.28 133.76">
  <defs>
    <style>
      .cls-1 {
        fill: #010101;
      }
    </style>
  </defs>
  <path class="cls-1" d="m131.85,82.65c-3.49-1.92-6.9-3.99-10.38-5.93-.79-.45-1.07-.94-1.06-1.84.04-5.09.11-10.19-.03-15.27-.05-1.78.58-2.69,2.08-3.5,3.65-1.97,7.21-4.11,10.82-6.18-.3-1.01-.58-1.91-.86-2.85-4.25,2.44-8.4,4.77-12.49,7.2-.85.51-1.43.46-2.23,0-4.5-2.65-9.03-5.26-13.58-7.83-.86-.48-1.21-1.01-1.2-2.03.06-4.5.26-9.01-.06-13.48-.21-3,.78-4.6,3.45-5.87,3.41-1.62,6.58-3.73,9.94-5.67-.74-.78-1.39-1.47-2.04-2.16-4.02,2.32-7.92,4.54-11.78,6.83-.75.44-1.28.51-2.07.05-4.7-2.77-9.44-5.44-14.14-8.22-.43-.25-.83-.96-.84-1.46-.07-3.67-.04-7.34-.04-11.01q0-2.77-2.7-3.4c-.07-.02-.16.05-.33.1v1.48c0,4.26.02,8.53-.03,12.8,0,.48-.32,1.19-.71,1.42-4.69,2.78-9.44,5.46-14.13,8.22-.83.49-1.45.43-2.26-.05-3.9-2.31-7.75-4.75-11.81-6.76-2.45-1.22-3.26-2.72-3.09-5.39.26-3.83.07-7.69.07-11.74-1.1.29-2.04.53-3.01.79,0,4.57.02,9.02-.03,13.46,0,.5-.26,1.22-.64,1.45-4.81,2.84-9.64,5.63-14.5,8.36-.44.24-1.25.19-1.73-.05-1.47-.73-2.86-1.63-4.29-2.45-2.44-1.4-4.89-2.8-6.97-3.99-.96.72-1.68,1.26-2.5,1.88,4.26,2.47,8.35,4.8,12.39,7.21.43.26.85.95.85,1.45.06,5.55.06,11.1,0,16.65,0,.46-.4,1.1-.81,1.34-4.76,2.8-9.54,5.57-14.36,8.28-.45.26-1.29.3-1.74.05-2.56-1.4-5.05-2.93-7.58-4.4-1.56-.91-3.14-1.78-4.76-2.69-.19.6-.28,1-.44,1.38-.53,1.22-.2,1.91,1.04,2.57,3.42,1.83,6.73,3.87,10.12,5.79.67.38.99.77.98,1.59-.04,5.46,0,10.92-.06,16.38,0,.47-.38,1.13-.77,1.37-3.04,1.85-6.14,3.61-9.21,5.42-2.87,1.7-2.74.78-1.62,4.39.52-.29.91-.5,1.3-.72,3.65-2.1,7.29-4.22,10.96-6.27.43-.24,1.2-.33,1.59-.1,4.86,2.74,9.69,5.53,14.5,8.38.41.24.78.91.79,1.37.06,5.46.06,10.92,0,16.38,0,.48-.38,1.14-.78,1.39-1.89,1.19-3.85,2.26-5.79,3.37-2.2,1.27-4.39,2.55-6.66,3.86.39.43.68.72.93,1.04.77,1.02,1.52,1.18,2.71.44,3.19-1.97,6.5-3.75,9.71-5.68.99-.6,1.75-.57,2.74.02,4.4,2.62,8.83,5.19,13.3,7.68.98.55,1.3,1.14,1.28,2.23-.06,4.35-.02,8.7-.02,13.12,1.04.26,1.98.5,3.06.77,0-4.9.02-9.57-.02-14.24,0-.84.26-1.29.99-1.7,4.78-2.7,9.53-5.44,14.26-8.22.69-.41,1.15-.42,1.84-.01,4.53,2.67,9.09,5.3,13.67,7.89.74.42,1.02.86,1.02,1.7-.04,4.4-.02,8.81-.01,13.21,0,.48.05.96.08,1.54.54-.12.93-.25,1.33-.29,1.47-.12,1.89-.83,1.85-2.33-.12-4.03-.03-8.07-.05-12.11,0-.68.08-1.14.79-1.54,4.67-2.63,9.32-5.29,13.93-8.03.94-.55,1.61-.49,2.49.03,3.54,2.11,7.1,4.16,10.69,6.19.41.23,1.12.41,1.44.22.63-.38,1.08-1.06,1.69-1.69-.55-.34-.96-.62-1.38-.86-3.72-2.16-7.46-4.29-11.15-6.49-.41-.25-.84-.87-.85-1.32-.06-5.69-.05-11.38,0-17.07,0-.43.34-1.05.71-1.26,4.67-2.73,9.37-5.39,14.04-8.12.73-.42,1.27-.46,2-.02,2.47,1.49,4.99,2.9,7.48,4.34,1.73,1,3.47,1.98,5.29,3.02.17-.54.25-.94.42-1.3.63-1.27.09-1.89-1.05-2.51Zm-14.59-7.65c0,.46-.38,1.11-.78,1.35-4.73,2.8-9.49,5.56-14.28,8.26-.44.25-1.23.22-1.71,0-1.24-.57-2.4-1.31-3.66-2.04-.28.99-.53,1.89-.81,2.9.82.48,1.6,1.05,2.47,1.44.91.41,1.23.94,1.22,1.97-.06,5.36-.05,10.73,0,16.1,0,.92-.22,1.47-1.07,1.95-4.5,2.54-8.98,5.14-13.42,7.77-.98.58-1.74.61-2.74.02-4.53-2.69-9.12-5.29-13.65-7.97-.4-.23-.77-.88-.78-1.35-.08-2.15-.04-4.31-.04-6.69-1.16.45-2.19.85-3.29,1.27,0,1.75-.04,3.49.02,5.23.03.84-.25,1.35-.98,1.76-4.64,2.65-9.24,5.36-13.9,7.98-.47.27-1.36.28-1.82.01-4.75-2.67-9.46-5.4-14.15-8.18-.44-.26-.85-.96-.86-1.46-.06-5.46-.01-10.92-.06-16.38,0-.83.36-1.23.99-1.59,2.66-1.51,5.31-3.05,8.07-4.65-.46-.2-.91-.26-1.14-.52-1.47-1.6-2.85-.92-4.32.03-1.41.91-2.88,1.76-4.39,2.51-.44.22-1.2.21-1.62-.03-4.79-2.7-9.55-5.45-14.28-8.24-.4-.24-.76-.91-.76-1.38-.06-5.41-.02-10.82-.05-16.24,0-.83.23-1.3,1-1.73,4.67-2.63,9.3-5.31,13.91-8.03.73-.43,1.26-.45,2,0,2.87,1.72,5.77,3.36,8.67,5.02.3.17.63.31,1.12.55-.09-1.19-.07-2.21-.29-3.17-.1-.44-.6-.87-1.03-1.13-2.28-1.36-4.59-2.69-6.91-3.99-.68-.38-.94-.81-.93-1.61.04-5.51.03-11.01,0-16.51,0-.79.25-1.24.94-1.63,4.74-2.7,9.44-5.46,14.19-8.14.41-.23,1.18-.22,1.59.01,4.75,2.67,9.44,5.43,14.18,8.12.69.39.98.83.95,1.62-.06,1.59-.02,3.19-.02,4.91,1.07-.16,2-.3,3.14-.48,0-1.4.05-2.8-.01-4.2-.05-.92.23-1.47,1.08-1.95,4.63-2.61,9.22-5.29,13.81-7.98.73-.43,1.29-.42,2.02,0,4.58,2.69,9.18,5.34,13.8,7.97.76.44,1.08.89,1.07,1.82-.06,5.32-.06,10.64,0,15.96,0,1.05-.25,1.66-1.21,2.15-1.58.8-3.08,1.76-4.71,2.71.58.83,1.09,1.57,1.68,2.42,1.75-1,3.44-2,5.17-2.91.35-.19.98-.24,1.3-.05,4.82,2.73,9.59,5.54,14.41,8.28.69.39.94.82.94,1.6-.03,5.51,0,11.01-.05,16.52Z"/>
  <path class="cls-1" d="m90.04,87.65c-2.17,1.32-4.96,1.89-7.54,2.21-5.01.64-9.55,2.34-13.83,4.93-1.28.78-2.66,1.42-4.04,2.03-4.09,1.83-8.62.04-10.82-3.13-2.16-3.1-2.91-6.71-.01-10.62,3.17-4.3,4.87-8.94,4.83-14.26-.05-5.43,4.51-9.22,10.4-9.09,1.34.15,3.26.81,4.78,2.32,1.36,1.36,2.63,2.81,3.94,4.22,2.53,2.72,5.89,3.95,9.3,4.96,3.6,1.06,5.99,3.24,6.8,6.9.88,3.98-.4,7.47-3.8,9.53Z"/>
  <path class="cls-1" d="m72.98,55.2c-3.27,1.14-8.08-.61-9.17-4.2-.51-1.68-.87-3.41-1.29-5.12.28-2.69.49-5.27,1.65-7.68,1.15-2.41,2.78-3.09,5.12-1.89,4.18,2.14,7.01,5.57,8.48,9.97,1.19,3.54-1.21,7.67-4.8,8.92Z"/>
  <path class="cls-1" d="m52.82,61.7c-4,0-7.05-2.65-7.61-6.8-.39-2.95-.45-5.91.45-8.81.25-.82.57-1.65,1.02-2.38,1.09-1.78,2.63-2.38,4.42-1.33,1.93,1.14,3.82,2.5,5.35,4.13,1.31,1.39,2.26,3.2,3.08,4.96,2.33,5-2,10.48-6.7,10.22Z"/>
  <path class="cls-1" d="m49.8,78.4c-1.49,1.56-3.35,2.17-5.6,1.75-3.79-.71-5.48-3.94-5.93-7.88-.1-.91-.18-1.81-.28-2.72-.05,0-.09-.02-.14-.03.29-1.28.41-2.62.89-3.81.73-1.8,2.35-2.43,4.49-1.5,3.71,1.63,6.84,4.08,8.25,8.06.82,2.32-.06,4.44-1.67,6.13Z"/>
  <path class="cls-1" d="m88.7,65.29c-3.74-.03-6.57-2.7-6.64-6.38,0-.23,0-.46,0-.69.15-2.79.58-5.53,1.98-8.01,1.38-2.44,3.4-2.88,5.54-1.12,3.06,2.51,5.05,5.87,5.29,9.73.23,3.79-2.78,6.49-6.16,6.47Z"/>
  <path class="cls-1" d="m97.72,33.84h-2.91c-.04-.16-.13-.3-.1-.42.5-2.42-.63-3.75-2.79-4.68-1.59-.68-3.02-1.71-4.69-2.69.46-.83.91-1.63,1.44-2.6,2.93,1.7,5.71,3.29,8.46,4.92.29.17.55.63.57.97.06,1.46.03,2.92.03,4.49Z"/>
  <path class="cls-1" d="m62.76,33.86h-3.02c0-.76-.07-1.52.02-2.27.12-.98-.33-1.46-1.14-1.9-2.12-1.15-4.19-2.39-6.35-3.63.51-.88.96-1.66,1.49-2.57,2.93,1.71,5.77,3.34,8.58,5.03.26.15.4.68.41,1.04.05,1.37.02,2.75.02,4.31Z"/>
  <path class="cls-1" d="m115.13,62c-.12.65-.01,1.35-.01,2.17-.7,0-1.23,0-1.77,0-.36,0-.71-.05-1.06-.08-.07-.18-.18-.32-.15-.43.56-2.51-.72-3.82-2.87-4.77-1.45-.64-2.78-1.58-4.16-2.39-.08-.05-.12-.14-.27-.31.4-.73.83-1.51,1.35-2.45,2.12,1.23,4.08,2.6,6.23,3.54,2.21.97,3.17,2.34,2.72,4.72Z"/>
  <path class="cls-1" d="m94.76,38.73v-2.97h2.74c.73,2.91.45,3.21-2.74,2.97Z"/>
  <rect class="cls-1" x="112.17" y="66.06" width="2.83" height="2.91"/>
</svg>