<svg width="21" height="20" viewBox="0 0 21 20" fill="none" xmlns="http://www.w3.org/2000/svg">
<g clip-path="url(#clip0_134_9)">
<path d="M15.3323 13.2304C14.6789 12.5853 13.8632 12.5853 13.2139 13.2304C12.7187 13.7215 12.2234 14.2126 11.7365 14.712C11.6033 14.8494 11.491 14.8785 11.3286 14.7869C11.0082 14.6121 10.6669 14.4706 10.3589 14.2792C8.92311 13.3761 7.72035 12.2149 6.65493 10.9081C6.12638 10.2589 5.65609 9.56385 5.32731 8.78143C5.26072 8.62328 5.2732 8.51924 5.40222 8.39022C5.89748 7.91162 6.38025 7.42052 6.86718 6.92943C7.54555 6.24689 7.54555 5.44782 6.86302 4.76112C6.47597 4.36991 6.08892 3.98703 5.70187 3.59582C5.30234 3.19628 4.90697 2.79259 4.50327 2.39721C3.84987 1.76046 3.03415 1.76046 2.38491 2.40138C1.88549 2.89247 1.40688 3.39605 0.899141 3.87882C0.428856 4.32413 0.191633 4.86933 0.141691 5.50609C0.0626169 6.54238 0.316487 7.5204 0.674403 8.47346C1.40688 10.4462 2.52225 12.1983 3.87484 13.8047C5.70187 15.9772 7.88266 17.696 10.4339 18.9363C11.5825 19.4939 12.7728 19.9226 14.0671 19.9934C14.9577 20.0433 15.7318 19.8186 16.3519 19.1235C16.7765 18.6491 17.2551 18.2163 17.7045 17.7626C18.3704 17.0884 18.3746 16.2727 17.7129 15.6068C16.9221 14.8119 16.1272 14.0212 15.3323 13.2304Z"/>
<path d="M14.5374 9.91346L16.0731 9.65126C15.8317 8.24041 15.1658 6.96273 14.1545 5.94725C13.0849 4.87766 11.7323 4.20345 10.2424 3.99536L10.026 5.53939C11.1788 5.7017 12.2276 6.22193 13.0558 7.05013C13.8382 7.83255 14.3501 8.82306 14.5374 9.91346Z"/>
<path d="M16.9388 3.23789C15.1658 1.46496 12.9226 0.34543 10.4463 0L10.2299 1.54403C12.3691 1.84368 14.3085 2.81338 15.84 4.34077C17.2925 5.79324 18.2456 7.6286 18.591 9.64708L20.1267 9.38488C19.723 7.04595 18.6201 4.92342 16.9388 3.23789Z"/>
</g>
<defs>
<clipPath id="clip0_134_9">
<rect width="20" height="20" fill="white" transform="translate(0.126953)"/>
</clipPath>
</defs>
</svg>
