<svg xmlns="http://www.w3.org/2000/svg" viewBox="0 0 653.06 525.85"><defs><style>.cls-1{fill:#f2fbfc;stroke:gray;}.cls-1,.cls-2,.cls-3,.cls-6{stroke-miterlimit:10;}.cls-2{fill:#ffd534;}.cls-2,.cls-3,.cls-4,.cls-6{stroke:#000;}.cls-3{fill:#263236;}.cls-4{fill:none;stroke-linecap:round;stroke-linejoin:round;}.cls-5{opacity:0.56;}.cls-21,.cls-6{fill:#fff;}.cls-7{fill:#dcf7f7;}.cls-8{fill:#603813;}.cls-9{fill:#623518;}.cls-10{fill:#7e4d24;}.cls-11{fill:#f8b734;}.cls-12{fill:#5a371b;}.cls-13{fill:#7c4a26;}.cls-14{fill:#a27856;}.cls-15{fill:#b39173;}.cls-16{fill:#5c3414;}.cls-17{fill:#7b4a25;}.cls-18{fill:#fbb536;}.cls-19{fill:#a17653;}.cls-20{fill:#dd4c4e;}.cls-22{fill:#2a170d;}.cls-23{fill:#b8611b;}.cls-24{fill:#d46d22;}.cls-25{fill:#ea7927;}.cls-26{fill:#e14528;}.cls-27{fill:#ec7827;}.cls-28{fill:#ca6c21;}.cls-29{fill:#f17e2a;}.cls-30{fill:#904c15;}.cls-31{fill:#633413;}.cls-32{fill:#5a3917;}.cls-33{fill:#a17856;}.cls-34{fill:#7b4b26;}.cls-35{fill:#5f3312;}.cls-36{fill:#623617;}.cls-37{fill:#f8d074;}.cls-38{fill:#f9b43d;}</style></defs><g id="bg"><path class="cls-1" d="M608.18,327.2a43.24,43.24,0,0,0-27.1,9.56c-7.41-40.36-41.69-70.89-82.89-70.89-.57,0-1.13,0-1.7,0-10.22-66.3-168.49-92.77-228.4-4.13C225.3,232.52,209.35,228,167.58,233.43c-46.22,6.06-84.4,39.06-84.4,87.24,0,.62,0,1.24,0,1.85a65.78,65.78,0,0,0-15.4-1.85C30.65,320.67.5,351.84.5,390.28s30.15,69.61,67.33,69.61A65.61,65.61,0,0,0,106,447.61c9,40.58,44.2,70.85,86.21,70.85,27.37,0,51.83-12.84,68.06-33,15.94,24.09,42.72,39.9,73.09,39.9,36.59,0,68-23,81.47-55.72a64.84,64.84,0,0,0,35.73,10.73c24.21,0,45.41-13.32,57.11-33.26,7.72,19.79,26.45,33.76,48.36,33.76,28.79,0,52.13-24.13,52.13-53.89a55.91,55.91,0,0,0-.58-8h.58c24.51,0,44.38-20.53,44.38-45.87S632.69,327.2,608.18,327.2Z"/><g id="bee_right" data-name="bee right"><path class="cls-2" d="M532.72,335.47c4-12-44.13-30.94-51.29-12.13S527.44,351.25,532.72,335.47Z"/><path class="cls-3" d="M532.72,335.47c1.15-3.41-2-7.39-7.12-10.9a24.34,24.34,0,0,0-6.3,18.65C526,342.38,531.24,339.91,532.72,335.47Z"/><path class="cls-3" d="M507.1,343.13c-1.07-6.73.89-15.81,7.86-24a58.27,58.27,0,0,0-12.77-3.35c-5.68,5.48-8.6,15.69-10.05,23.39A54.22,54.22,0,0,0,507.1,343.13Z"/><path class="cls-4" d="M477.87,309.8c6.59-.06,11.45,6.6,11.45,6.6"/><path class="cls-4" d="M485.76,304.63c7.33,1.35,8.55,10.86,8.55,10.86"/><g class="cls-5"><path class="cls-6" d="M506.55,316.29c9.46-24.62,17.31-23.61,22.22-18.5C536,305.33,519.64,315.55,506.55,316.29Z"/><path class="cls-6" d="M506.55,316.29c-6.46-23.55-19.76-24.57-27.53-17.89S506.55,316.29,506.55,316.29Z"/></g><path class="cls-4" d="M506.55,316.29c9.46-24.62,17.31-23.61,22.22-18.5C536,305.33,519.64,315.55,506.55,316.29Z"/><path class="cls-4" d="M506.55,316.29c-6.46-23.55-19.76-24.57-27.53-17.89S506.55,316.29,506.55,316.29Z"/></g><path class="cls-2" d="M97.15,187.44c4.26-14.56,56.5-.42,53.47,17.74C146.37,230.67,92.15,204.53,97.15,187.44Z"/><path class="cls-4" d="M162,197.81c-3.29-4.06-13.08,0-13.08,0"/><path class="cls-4" d="M162,191.15c-6.88-2.41-14.41,4.85-14.41,4.85"/><path class="cls-3" d="M111.05,181.42c0,9.55-3,16.46-8.37,19.47-4.37-4.43-6.77-9.21-5.53-13.45S104,181.31,111.05,181.42Z"/><path class="cls-3" d="M125.32,183.66a62.57,62.57,0,0,1,13.39,5.43c1.09,12.34-5.6,20.93-10.79,25.63a57.49,57.49,0,0,1-13.31-5.18A39.83,39.83,0,0,0,125.32,183.66Z"/><g class="cls-5"><path class="cls-6" d="M131.8,185.77c17.5-20,31.57-11.09,28.76-5.15S131.8,185.77,131.8,185.77Z"/><path class="cls-6" d="M126,157c14.12-7.73,5.79,28.75,5.79,28.75S116,162.49,126,157Z"/></g><path class="cls-4" d="M131.8,185.77c17.5-20,31.57-11.09,28.76-5.15S131.8,185.77,131.8,185.77Z"/><path class="cls-4" d="M126,157c14.12-7.73,5.79,28.75,5.79,28.75S116,162.49,126,157Z"/><path class="cls-7" d="M499.74,409.61c-19.85,10.65-31.16,25.07-34.44,27.77-10.82,8.94-41.44-5.3-58.35-1.88-19.12,3.86-20.28,25.83-62,36.91-30.62,4-75.38-22.78-85.82-22.78-6.92,0-32.51,8.71-49.81,13.63-72.08,20.52-71.06-50.35-101.24-41.88C21.32,445.72,4.86,384.13,1.61,380.84c0,0-.43,1.83-.62,9,0,38.55,29.66,69.47,66.84,69.47a64,64,0,0,0,38.54-12.66c8.68,40.86,43.85,71.23,85.86,71.23a86.68,86.68,0,0,0,68.1-33.32c16,24.42,42.68,40.21,73.05,40.21,36.59,0,68-23.2,81.24-55.92a63.9,63.9,0,0,0,36,10.93c24.21,0,45.75-13.58,57.18-33.87,7.42,20.16,26.38,34.37,48.29,34.37,28.79,0,51.61-23.91,51.61-53.68a58.13,58.13,0,0,0-.65-8.19c.19,0,1-.05,1.17,0C639.62,418.14,653.7,389,652,372c-1.84-13.89-38.77-14.13-79.38,38.58C547.65,424.21,511.34,403.38,499.74,409.61Z"/><path class="cls-8" d="M129.52,418.34a7.28,7.28,0,0,1-4.22-5.52,62.74,62.74,0,0,1-.51-18.65c.95-9.5,2.33-19,3.75-28.48.09-.48.13-.72.21-1.21a2.48,2.48,0,0,1,3.31-1.3l.18.09a2.62,2.62,0,0,1,1.52,3.16c-1.68,13.38-3.88,26.76-3.51,40.29a29.67,29.67,0,0,0,.78,6.69,1,1,0,0,0,.62.87,1.88,1.88,0,0,0,1,0c2.32-.65,3.74-2.11,5.26-3.53a149.39,149.39,0,0,0,16.79-21.48c3.25-4.87,4.86-7.31,8-12.21l.58-.7a2.35,2.35,0,0,1,2.84-.7l.56.22a2.26,2.26,0,0,1,1.09,3l-.11.3c-2.34,3.6-4.77,7.59-7.25,11.45-5.11,8-10.88,16.24-17.5,23.1a18.51,18.51,0,0,1-4.66,3.73,15.84,15.84,0,0,1-2.36,1.09A9.92,9.92,0,0,1,129.52,418.34Z"/><path class="cls-8" d="M169.29,391.19c-1.25-.53-2-1.22-1.89-2.19a1.5,1.5,0,0,1,0-.67,1.72,1.72,0,0,1,1.77-1,16.62,16.62,0,0,1,5.45.92c1.27.43,1.88,1.22,1.61,2.39l-.1.3c-.26.82-1,1.17-2.08,1C172.43,391.74,170.76,391.38,169.29,391.19ZM158,429.43a2.52,2.52,0,0,1-1.78-3.15c1.48-4.77,2.22-7.16,3.71-11.93.37-1.07.56-1.61.92-2.69l.31.11,4.85-14.2a2.94,2.94,0,0,1,1.1-1.62,2.79,2.79,0,0,1,2.51-.2l.3.11a2.32,2.32,0,0,1,1.51,2.11,6.82,6.82,0,0,1-.3,1.57c-1.56,4.59-3.13,9.2-4.65,13.86s-3,9.23-4.46,13.92l-.37,1.13C161,429.65,159.56,430,158,429.43Z"/><path class="cls-8" d="M183.37,438.18a21.12,21.12,0,0,1-6.29-2.95A17.43,17.43,0,0,1,169.6,423a6.62,6.62,0,0,1,.2-1.35,2.45,2.45,0,0,1,3.34-1.47c1.51.53,2,1.31,1.77,2.06l-.11.38c-.88,2.88,1.17,6,3.64,9.1,1.25,1.7,2.95,2.55,5.75,3.45,4.25,1.36,7.62.44,8.2-1.78.9-3.45-4.44-9.05-9.19-12.95-6.11-5-10.38-10.52-9.16-14.36,1.31-4.14,9.23-6.47,20.85-2.87,5.57,1.72,10.1,5,12.28,9.46a3.87,3.87,0,0,1,.38,2.47c-.44,1.84-3.13,3.94-5.51,3.32-1.24-.33-1.91-1.17-1.78-1.7.24-.92,2.27-1.61,2.54-2.68.69-2.77-5-7-9.79-8.37-5.85-1.7-13.2-1.4-14.21,1.93-.86,2.8,2.77,7.12,6.72,10.2,6.36,4.88,13.63,11.79,12.36,16.86a5,5,0,0,1-1,1.93C194.69,439.29,188.88,439.79,183.37,438.18Z"/><path class="cls-8" d="M221.29,447.28a15.61,15.61,0,0,1-7.26-3.5,12.4,12.4,0,0,1-3.61-5.85,43.48,43.48,0,0,1-1.94-16,49,49,0,0,1,.9-8.5c.06-.28.1-.42.16-.69a10.35,10.35,0,0,1,.66-1.88,2.13,2.13,0,0,1,2.57-.91l.21.05a2,2,0,0,1,1.8,2,6.63,6.63,0,0,1-.15,1.59,48.59,48.59,0,0,0,.15,21.39,13.42,13.42,0,0,0,1.23,3.76,8.87,8.87,0,0,0,6.46,4.86,9.7,9.7,0,0,0,7.33-1.3,11.09,11.09,0,0,0,4.45-6.34,26.08,26.08,0,0,0,.76-3.08c.5-2.59,1-5.28,1.49-8,.55-3.18.82-4.77,1.37-8a3.33,3.33,0,0,1,.59-1.58,2.27,2.27,0,0,1,2.26-.88l.2,0a2.32,2.32,0,0,1,2,1.47,4.19,4.19,0,0,1,0,1.77c-.55,3.44-.91,7-1.47,10.43a62.1,62.1,0,0,1-1.77,8.29,16.27,16.27,0,0,1-5.39,8.38C231.05,447.35,225.89,448.23,221.29,447.28Z"/><path class="cls-8" d="M260.06,454.35c-5.31-.65-9.64-3-11.81-6.55a16.81,16.81,0,0,1-2.23-8.35c-.26-4.57-.38-9.12-.22-13.66.12-.78.14-1.66.28-2.52.24-1.34.37-2,.61-3.35.68-3,1-4.5,1.67-7.51l.58-1.75a2.42,2.42,0,0,1,2.41-.91l.4.07c1.39.37,1.51,1.12,1.38,2-.55,3.47-1.41,7-1.93,10.59a47.38,47.38,0,0,0-.46,5.54c-.14,5.32-.32,10.6,1,16.07a7.26,7.26,0,0,0,1,2.46c1.21,2.57,3.92,4.14,8,4.63l.33,0c.44.06,1,.16,1.43.25,1.31.32,2.22,1.06,2.14,1.84v.08c-.21.94-1.15,1.22-2.6,1.22A16.84,16.84,0,0,1,260.06,454.35Z"/><path class="cls-8" d="M316.28,456.85a15.12,15.12,0,0,1-9.8-3.7,23.9,23.9,0,0,1-8.84-15.45,109.4,109.4,0,0,1-1-20.58c.17-3.64.54-7.27,1-11a6.06,6.06,0,0,1,.69-2,2.8,2.8,0,0,1,2.55-1.48l.79.11c1.38.29,2,1.1,1.92,2.05l0,.48a51,51,0,0,0-1.14,10.18c-.05,1.43-.08,2.14-.12,3.56-.15,7.37.1,14.76,2.15,22,1,3.59,3.51,6.76,6.76,9.5a7.82,7.82,0,0,0,5,1.95,9.44,9.44,0,0,0,5.27-1.91c3.71-2.88,4.95-6.56,6.06-10.22,2.52-8.53,2.79-17.1,2.67-25.81-.1-3.65-.14-5.47-.24-9.11a2.37,2.37,0,0,1,2.22-2.68l.69-.1a2.48,2.48,0,0,1,2.58,2.67c.16,4.28.25,6.42.41,10.69.57,9-.28,19.83-3.59,28.34a19.18,19.18,0,0,1-6.48,9.1A15.83,15.83,0,0,1,316.28,456.85Z"/><path class="cls-8" d="M346.93,456.24l-.21.1a2,2,0,0,1-2.33-1.86c-1.72-11.18-3.31-22.34-3.91-33.66-.05-.25-.08-.37-.13-.63a2.07,2.07,0,0,1,2-2.32c2-.11,1.94,1.63,2.23,3.2.48,4.8.72,7.2,1.21,12l.42,0a38.32,38.32,0,0,1,2.17-4.35c3.24-5.45,9-9.13,16.74-10.18a15.18,15.18,0,0,1,8.33,1.76,2.39,2.39,0,0,1,1.47,1.81c.18,1-.55,1.51-2,2a2.17,2.17,0,0,1-1.64-.52,9,9,0,0,0-6.36-1.69,13.56,13.56,0,0,0-2.87.69c-4.76,1.66-8.21,4.23-10.08,7.94-2.7,5.34-4.7,10.88-4.22,16.25.32,3.68.75,4.21,1,7.39A1.88,1.88,0,0,1,346.93,456.24Z"/><path class="cls-8" d="M398.63,450.74a20.09,20.09,0,0,1-6.87.07A16.74,16.74,0,0,1,380,443.06a7,7,0,0,1-.38-1.31A2.5,2.5,0,0,1,382,439c1.58-.18,2.34.31,2.44,1.09l.06.4c.4,3,3.54,4.93,7,6.63,1.82,1,3.7,1,6.59.62,4.38-.63,7-2.94,6.64-5.2-.62-3.51-7.75-6.25-13.63-7.7-7.55-1.86-13.64-5-14.14-9-.53-4.33,5.58-9.88,17.52-11.71,5.72-.87,11.17.11,15,3.2a3.77,3.77,0,0,1,1.37,2.06c.37,1.87-1.2,4.94-3.6,5.42-1.25.25-2.2-.22-2.3-.76-.17-.94,1.38-2.45,1.17-3.54-.52-2.8-7.35-4.13-12.28-3.29-5.95,1-12.42,4.5-11.95,7.95.39,2.9,5.42,5.23,10.24,6.29,7.73,1.64,17.15,4.72,18.11,9.86a5.25,5.25,0,0,1-.15,2.21C409.27,446.81,404.24,449.79,398.63,450.74Z"/><path class="cls-8" d="M436.64,442.4a15.5,15.5,0,0,1-8,0,12,12,0,0,1-5.7-3.72,42.46,42.46,0,0,1-8.39-13.62A48.29,48.29,0,0,1,411.8,417l-.14-.7a10.79,10.79,0,0,1-.18-2,2.18,2.18,0,0,1,1.94-2l.21,0a1.94,1.94,0,0,1,2.45,1,7.44,7.44,0,0,1,.53,1.5,47.73,47.73,0,0,0,9,19.28,13.42,13.42,0,0,0,2.67,2.87,8.69,8.69,0,0,0,7.88,1.56,10,10,0,0,0,6.11-4.39,11.33,11.33,0,0,0,1.41-7.68,26.93,26.93,0,0,0-.6-3.12c-.62-2.56-1.27-5.22-2-7.9-.83-3.12-1.24-4.68-2.06-7.8a3.21,3.21,0,0,1-.13-1.69,2.34,2.34,0,0,1,1.69-1.79l.2,0a2.27,2.27,0,0,1,2.4.46,4.13,4.13,0,0,1,.76,1.59c.93,3.35,2.08,6.72,3,10.07a61.26,61.26,0,0,1,1.83,8.28,16.61,16.61,0,0,1-1.41,9.94C445.52,438.18,441.2,441.24,436.64,442.4Z"/><path class="cls-8" d="M474.89,431.74c-5.13,1.76-10.07,1.52-13.51-.71a16.18,16.18,0,0,1-5.51-6.57c-2.14-4-4.15-8.07-5.9-12.25-.21-.76-.55-1.57-.79-2.41l-.83-3.3c-.64-3-1-4.51-1.61-7.52l-.2-1.84a2.5,2.5,0,0,1,1.82-1.88l.39-.12c1.42-.27,1.84.35,2.07,1.18.95,3.38,1.63,6.94,2.66,10.43a48.05,48.05,0,0,0,1.88,5.21c2.09,4.87,4.13,9.72,7.65,14.07a6.8,6.8,0,0,0,1.94,1.78c2.18,1.79,5.31,2,9.24.67l.31-.11c.43-.15,1-.31,1.41-.41,1.34-.3,2.48,0,2.73.72l0,.08c.2.93-.54,1.61-1.87,2.24A15.58,15.58,0,0,1,474.89,431.74Z"/><path class="cls-8" d="M496.73,422.89a15.63,15.63,0,0,1-8,1.09,12,12,0,0,1-6.16-2.92,41.87,41.87,0,0,1-10.05-12.41,47.68,47.68,0,0,1-3.7-7.65l-.23-.68a10.42,10.42,0,0,1-.42-1.94,2.21,2.21,0,0,1,1.7-2.2l.2-.07a2,2,0,0,1,2.57.66,7.51,7.51,0,0,1,.71,1.42,47.14,47.14,0,0,0,11.37,17.94,13.09,13.09,0,0,0,3,2.48,8.76,8.76,0,0,0,8.07.49,10.19,10.19,0,0,0,5.59-5.17,11.38,11.38,0,0,0,.48-7.82,31.43,31.43,0,0,0-1-3c-.94-2.46-1.91-5-2.95-7.58-1.2-3-1.81-4.47-3-7.46a3.17,3.17,0,0,1-.33-1.66,2.36,2.36,0,0,1,1.47-2l.19-.09a2.33,2.33,0,0,1,2.46.13,4,4,0,0,1,1,1.48c1.34,3.2,2.9,6.39,4.24,9.6a60.87,60.87,0,0,1,2.85,8,16.51,16.51,0,0,1-.21,10.06C505.11,417.51,501.16,421.13,496.73,422.89Z"/><path class="cls-8" d="M505.76,375.45c-1.27.5-2.29.53-2.85-.25a1.49,1.49,0,0,1-.45-.49,1.84,1.84,0,0,1,.61-2,17.57,17.57,0,0,1,4.61-3.21c1.23-.59,2.21-.45,2.79.58l.13.29a1.79,1.79,0,0,1-.82,2.23C508.44,373.61,507,374.54,505.76,375.45Zm17.5,35.68c-1.42.63-2.86.29-3.43-1-2.13-4.5-3.19-6.76-5.31-11.27-.45-1-.68-1.56-1.14-2.6l.3-.14-6-13.72a3,3,0,0,1-.28-2,2.92,2.92,0,0,1,1.7-1.92l.29-.14a2.24,2.24,0,0,1,2.54.46,7.17,7.17,0,0,1,.84,1.34c2,4.43,3.9,8.88,5.92,13.34s4,8.83,6.12,13.24l.49,1.08C525.62,409.14,524.79,410.46,523.26,411.13Z"/></g><g id="bear"><path id="part_of_body" data-name="part of body" class="cls-9" d="M382.63,281.69s.29-15.48-1.68-18.58c0,0,5.85,2.56,9.5,1.77l1.87-42.1s-13.57.59-25.38-4.92-98.76,1.58-98.76,1.58l-7.87,10.23s-9.61,3.85-16.75,9.64a63.92,63.92,0,0,0-11,11.21Z"/><path id="laba_dreapta" data-name="laba dreapta" class="cls-10" d="M429.42,232.28s3,25.55-20,37.07a3.07,3.07,0,0,1-.5.2c-1.82.54-12.54,3.44-18.11-1,0,0-11-9.32-10.25-18.88a3,3,0,0,1,.21-.89c.23-.55.65-1.55,1.17-2.54a3.11,3.11,0,0,0-.3-3.31,10.62,10.62,0,0,1-2.14-8.3c1-5.62,4.16-13.7,12.72-15a2.89,2.89,0,0,0,2.19-1.56c1.12-2.26,3.84-6.56,8.74-7.88a3.08,3.08,0,0,1,.8-.1c2.46,0,15.09.55,21,11.19C424.92,221.3,429.29,229.43,429.42,232.28Z"/><path id="laba_dreapta_miere" data-name="laba dreapta miere" class="cls-11" d="M425.45,228.66s1,23.93-21.83,36.5a4.37,4.37,0,0,1-.49.23c-1.78.64-12.22,4.17-17.22.39,0,0-9.78-8-8.41-17.1a3.09,3.09,0,0,1,.28-.86c.25-.54.73-1.51,1.3-2.49a2.85,2.85,0,0,0-.05-3.1,9,9,0,0,1-1.43-7.69c1.37-5.39,5-13.26,13.23-15.1A3.44,3.44,0,0,0,393,217.8c1.23-2.22,4.14-6.49,8.91-8.09a3,3,0,0,1,.77-.15c2.36-.18,14.36-.58,19.24,9.05C422,218.61,425.54,226,425.45,228.66Z"/><path id="urechea_stanga" data-name="urechea stanga" class="cls-12" d="M193.59,121.71s-34.62,4.65-43-28.85c-4.49-17.94.11-37.16,13-50.43a47.43,47.43,0,0,1,22.07-13s31.72-9.81,49.67,22.93Z"/><path id="urechea_stanga_front" data-name="urechea stanga front" class="cls-13" d="M195.49,119.62s-32.93,4.5-40.87-27.66c-4.25-17.23.15-35.7,12.43-48.45a45.18,45.18,0,0,1,21-12.5s30.18-9.45,47.21,22Z"/><path id="urechea_stanga_in_back" data-name="urechea stanga in back" class="cls-14" d="M229.43,60.9s-9.11-25-35.58-17C181.17,47.78,170.59,57.08,166,69.35a35.33,35.33,0,0,0-1.6,20.38S168.72,114,197,113.56Z"/><path id="urechea_stanga_in" data-name="urechea stanga in" class="cls-15" d="M230.5,66.56s-7.19-25.45-32.32-21.13a36.27,36.27,0,0,0-27.37,21A34.9,34.9,0,0,0,168.25,86s2.78,24.09,29.23,27.42Z"/><path id="urechea_dreapta" data-name="urechea dreapta" class="cls-12" d="M355.37,36.19S358.32.26,394.42.33c17.29,0,33.8,8,43.81,22.07a47.58,47.58,0,0,1,9,25.78s2.79,33.09-33,43.62Z"/><path id="urechea_dreapta_front" data-name="urechea dreapta front" class="cls-13" d="M357.85,35.52S361.11.42,395.09,0a48.36,48.36,0,0,1,41,20.94,46.32,46.32,0,0,1,8.09,25s2.18,32.25-31.68,43Z"/><path id="urechea_dreapta_in_back" data-name="urechea dreapta in back" class="cls-14" d="M364.42,42s1.89-26.53,29.54-26.1c13.25.21,26,6.25,33.8,16.77a35.36,35.36,0,0,1,7.13,19.16s2.49,24.48-24.84,31.89Z"/><path id="urechea_dreapta_in" data-name="urechea dreapta in" class="cls-15" d="M364.74,45.09s2.45-26.33,27.95-26.64a36.32,36.32,0,0,1,30.73,15.7,34.75,34.75,0,0,1,6.06,18.79s1.64,24.19-23.77,32.26Z"/><path id="cap_back" data-name="cap back" class="cls-16" d="M260.2,37.1S307,16.39,354.35,33.78s65.49,54.57,74.25,80.32,5.47,67-34.66,92.55-71,27.4-76.55,27.85S237,238,210.42,206.8s-29-67.28-14.32-101S235,49.66,260.2,37.1Z"/><path id="cap_front" data-name="cap front" class="cls-17" d="M263.07,36.76s44.56-19.95,89.65-3.29,62.3,52.37,70.62,77.11,5.13,64.41-33.1,89S322.63,226,317.31,226.4s-76.52,3.47-101.82-26.51S188,135.27,202,102.89,239.1,48.86,263.07,36.76Z"/><path id="bot_back" data-name="bot back" class="cls-14" d="M330.61,139.75c3.78-.14,27.46-.56,40.93,11.43.62.55,1.24,1.11,1.89,1.64,3.84,3.13,20,18.24,8.45,42.63A34,34,0,0,1,372,207.83c-7.65,5.93-23,14.68-50.06,19a32.07,32.07,0,0,1-4.59.4c-7.89.13-33,0-50.59-6.81a33.92,33.92,0,0,1-20.41-21c-2.4-7.48-2.83-17.54,4.08-28.87a33.13,33.13,0,0,1,6.69-7.77c6.71-5.74,22.13-17.8,35.54-20a264.39,264.39,0,0,1,36.9-3Q330.07,139.78,330.61,139.75Z"/><path id="bot_front" data-name="bot front" class="cls-15" d="M332.28,139.89c3.41-.15,24.78-.64,36.89,10.52.56.52,1.12,1,1.7,1.53,3.45,2.91,18,17,7.46,39.82a32,32,0,0,1-9,11.61c-6.93,5.57-20.79,13.81-45.25,18a27.49,27.49,0,0,1-4.15.39c-7.11.16-29.74.11-45.62-6.17A30.84,30.84,0,0,1,256,196c-2.14-7-2.48-16.39,3.8-27a30.65,30.65,0,0,1,6.07-7.29c6.07-5.39,20-16.73,32.14-18.88a230.52,230.52,0,0,1,33.31-2.94C331.63,139.92,332,139.91,332.28,139.89Z"/><path id="miere_pe_bot" data-name="miere pe bot" class="cls-18" d="M270.25,205.77S267,200,280.22,191A24.48,24.48,0,0,0,287,183.3a6.92,6.92,0,0,1,5.69-3.52,13.87,13.87,0,0,1,3.76.4,7,7,0,0,0,5.12-.86c3.84-2.24,11.64-5.11,19,2.47a7.34,7.34,0,0,0,4.84,1.68,7,7,0,0,0,6.12-3.91c1.42-2.94,4.78-7.22,11.08-1.95,5.93,4.95,5.24,8.95,4.12,11.06A7.1,7.1,0,0,0,347,196a8.79,8.79,0,0,0,2,2.07c2.53,1.85,1.55,5.58.35,8.27a7,7,0,0,1-4.35,3.86c-3.73,1.14-10.39,3.7-13.14,8-3,4.72-11.5,3.46-15.22,2.63a7.17,7.17,0,0,1-2.94-1.41c-3.54-2.86-14.52-10.84-22.25-7C282.1,217.15,272,214.36,270.25,205.77Z"/><path id="nas_back" data-name="nas back" class="cls-19" d="M302.31,137.39s18.56-6.1,29.3,2-8.1,26.55-14.08,30.08c-5.71,3.39-12,1.22-16.18-1.59a11.06,11.06,0,0,0-1-.63c-3.16-1.66-20.22-11.19-13.91-20.95a13.33,13.33,0,0,1,3.82-3.88A48.23,48.23,0,0,1,302.31,137.39Z"/><path d="M311.89,165.09l3.55,25.45a6.17,6.17,0,0,1-3.35,7.23c-4.85,2.65-14.93,3.25-18.42-4.56,0,0-3.08-1.19-1.48,2.45,0,0,1.54,4.12,8.48,5.89,0,0,3.65,21.19,28.8,11.11a10,10,0,0,0,2.68-1.6,16.29,16.29,0,0,0,5.68-15s5.06-5.21,3.76-8.33c-.75-1.78-2.22.6-2.22.6s-3.23,7.92-9.64,8.23-10.38-1.87-10.83-3.53-4.28-28.81-4.28-28.81Z"/><path id="limba" class="cls-20" d="M321,205.57s6.12-6.92,13.52-.92c0,0-1.22,6.38-10.36,8.84s-15.75-1.49-17.59-4a7.83,7.83,0,0,1,6.42-5A18.59,18.59,0,0,1,321,205.57Z"/><g id="ochi_stanga" data-name="ochi stanga"><ellipse cx="269.79" cy="138.68" rx="12.06" ry="8.32" transform="translate(100.45 390.36) rotate(-83.27)"/><ellipse class="cls-21" cx="270.2" cy="132.71" rx="3.5" ry="2.87" transform="translate(106.74 385.49) rotate(-83.27)"/><circle class="cls-21" cx="265.96" cy="139.62" r="1.38"/></g><g id="ochi_dreapta" data-name="ochi dreapta"><ellipse cx="346.8" cy="127.56" rx="8.32" ry="12.06" transform="translate(-22.6 118.17) rotate(-18.74)"/><ellipse class="cls-21" cx="345.16" cy="121.8" rx="2.87" ry="3.5" transform="translate(-20.83 117.34) rotate(-18.74)"/><circle class="cls-21" cx="350.74" cy="127.68" r="1.38"/></g><path id="nas" class="cls-22" d="M302.82,133s18.57-6.1,29.31,2.05-8.11,26.54-14.08,30.08c-5.72,3.38-12,1.21-16.18-1.6-.34-.22-.69-.44-1.05-.63-3.15-1.65-20.22-11.19-13.91-21a13.45,13.45,0,0,1,3.82-3.88A48.92,48.92,0,0,1,302.82,133Z"/><ellipse id="umbra_nas" data-name="umbra nas" class="cls-21" cx="310.35" cy="139.8" rx="11.79" ry="5.24" transform="translate(-17.1 46.85) rotate(-8.4)"/><g id="poloboc"><path class="cls-23" d="M360.42,357.75c-2.64,3.06-4.39,4.76-4.39,4.76-47,22.06-76,2.1-76,2.1q-3.83-3.53-7.14-7C273.6,358,308.66,375.59,360.42,357.75Z"/><path class="cls-24" d="M369.41,345.91a122.94,122.94,0,0,1-8.88,11.71l-.11.13c-51.76,17.84-86.82.25-87.55-.12h0q-4.91-5.07-8.81-10c.44.27,10.64,6.36,27,10a109.57,109.57,0,0,0,47.6,0A117.33,117.33,0,0,0,369.41,345.91Z"/><path class="cls-25" d="M378.39,329.69a107.7,107.7,0,0,1-9,16.22,117.33,117.33,0,0,1-30.78,11.71,109.57,109.57,0,0,1-47.6,0c-16.34-3.61-26.54-9.7-27-10h0A105.35,105.35,0,0,1,253,331S308.8,365.4,378.39,329.69Z"/><path class="cls-26" d="M378.39,329.69C308.8,365.4,253,331,253,331c-10.8-20.45-9.71-38-4.66-51.58.89.91,42.31,42.48,134.85,5.06C387.64,300.87,384.16,316.66,378.39,329.69Z"/><path class="cls-27" d="M383.16,284.47c-92.54,37.42-134-4.15-134.85-5.06h0a72.44,72.44,0,0,1,15.17-24S307,284.6,367.43,257C375.77,266.08,380.69,275.37,383.16,284.47Z"/><path class="cls-28" d="M367.43,257c-60.41,27.63-103.95-1.56-103.95-1.56h0a62.35,62.35,0,0,1,7.49-6.89l42.74-3.27h.19l20.14-1.56h.05l26.71-2.05,1.91,4.43h0Z"/><ellipse class="cls-29" cx="314.95" cy="238.38" rx="52.48" ry="18.59"/><ellipse class="cls-30" cx="314.41" cy="234.23" rx="38.28" ry="11.02"/></g><path id="picior_stanga" data-name="picior stanga" class="cls-31" d="M241,300s-46.11-6.18-40.42,51.81c0,0,5.07,51.17,49.77,37.27.83-.25,1.66-.49,2.5-.67,3.75-.78,17.87-4.67,34.26-21.06,0,0-5.16-1.51-5.84-3.09C281.23,364.25,290.37,308.28,241,300Z"/><path id="picior_dreapta" data-name="picior dreapta" class="cls-32" d="M393.05,298.12s46.11-6.18,40.41,51.81c0,0-5.06,51.17-49.76,37.28a25,25,0,0,0-2.5-.67c-3.76-.79-17.87-4.68-34.26-21.07,0,0,5.16-1.51,5.83-3.08C352.77,362.39,343.63,306.42,393.05,298.12Z"/><ellipse id="pata_picior_stanga" data-name="pata picior stanga" class="cls-17" cx="239.08" cy="341.96" rx="39.02" ry="42.17" transform="translate(-66.67 58.04) rotate(-12.16)"/><ellipse id="pata_picior_dreapta" data-name="pata picior dreapta" class="cls-17" cx="397.17" cy="340.85" rx="42.17" ry="39.02" transform="matrix(0.08, -1, 1, 0.08, 26.33, 710.18)"/><ellipse class="cls-33" cx="211.22" cy="343.65" rx="6.91" ry="8.4" transform="translate(-191.21 316.12) rotate(-54.51)"/><ellipse class="cls-33" cx="220.33" cy="327.69" rx="7.76" ry="10.25" transform="translate(-167.18 251.77) rotate(-45)"/><ellipse class="cls-33" cx="238.24" cy="321.8" rx="10.25" ry="7.76" transform="translate(-101.19 534.17) rotate(-85.52)"/><ellipse class="cls-33" cx="257.45" cy="329.69" rx="10.75" ry="8.17" transform="translate(-126.13 496.55) rotate(-75.52)"/><ellipse class="cls-33" cx="414.8" cy="327.34" rx="10.25" ry="7.76" transform="translate(-19.5 628.33) rotate(-73)"/><ellipse class="cls-33" cx="397.17" cy="321.95" rx="10.25" ry="7.76" transform="translate(24.92 672.41) rotate(-82.3)"/><ellipse class="cls-33" cx="378.69" cy="328.99" rx="8.23" ry="11.02" transform="matrix(0.99, -0.16, 0.16, 0.99, -46.92, 63.48)"/><ellipse class="cls-33" cx="424.13" cy="342.61" rx="9.4" ry="7.04" transform="translate(-121.04 349.97) rotate(-39.7)"/><path class="cls-33" d="M374.22,358.91c.94-4.84,4.22-14.76,15.29-17.57a29,29,0,0,1,8.16-.35,18,18,0,0,1,15.23,12.22c1.88,5.59,3.43,14.24-2.28,19.68,0,0-6.42,7.95-13.45-1.25,0,0-2-7.94-8.28-2.51,0,0-10.9,4.36-14.23-4A11,11,0,0,1,374.22,358.91Z"/><path class="cls-33" d="M223.9,368.88c-1.78-4.6-4.31-14.74,3.56-23a28.83,28.83,0,0,1,6.71-4.66,18.06,18.06,0,0,1,19.4,2.21c4.58,3.72,10.5,10.21,8.58,17.86,0,0-1.19,10.14-12,6.12,0,0-5.94-5.64-8.34,2.3,0,0-6.89,9.51-14.19,4.17A11,11,0,0,1,223.9,368.88Z"/><path id="laba_stanga" data-name="laba stanga" class="cls-34" d="M236.42,245.1s-19.77,15.23-12.72,39.83a3.13,3.13,0,0,0,.19.51c.82,1.69,5.8,11.45,12.53,12.49,0,0,13.67,1.6,19.86-5.43a2.93,2.93,0,0,0,.48-.77c.24-.54.66-1.53,1-2.58a3,3,0,0,1,2.5-2,10,10,0,0,0,7.18-4.11c3.26-4.56,6.83-12.36,2.13-19.47a3,3,0,0,1-.35-2.66c.84-2.35,2.06-7.26-.22-11.72a3.27,3.27,0,0,0-.45-.65c-1.62-1.79-10.26-10.58-21.55-7.63C247,240.87,238.49,243.24,236.42,245.1Z"/><path id="gheara" class="cls-35" d="M250.18,256.84s12.55-2.14,19.45,2.79l-.55,1.93S259.39,256.1,250.18,256.84Z"/><path id="gheara-2" data-name="gheara" class="cls-36" d="M244.41,275.45s11.32,9.84,18.55,11L261,287S248.23,283.31,244.41,275.45Z"/><path id="gheara-3" data-name="gheara" class="cls-36" d="M411.57,229.3s-12.76-8.87-20.39-9.33l1.94-.74S406.81,221.68,411.57,229.3Z"/><path id="gheara-4" data-name="gheara" class="cls-36" d="M403.77,247.94s-16-1-22.9-5.54l1.26,1.83S395.35,251,403.77,247.94Z"/><path class="cls-37" d="M399.14,265.15s-10.35,4.17-14.79-3.81a32,32,0,0,1-4.74-7.28c-1.35-3.36-.25-5.81.52-6.62,1.92-2,1.61,4.9,2.43,7a11.61,11.61,0,0,0,3.61,4.34c2.54,2.25,2.29,4.33,4.57,4.69S401.82,261.79,399.14,265.15Z"/><path class="cls-37" d="M398.22,216.25a8.28,8.28,0,0,1,6.49-5.2c5-.69,4.61,1.87,4.61,1.87s.27,2.11-4.17,1S400.22,220.63,398.22,216.25Z"/><path class="cls-37" d="M382.09,230.53s5.25-9.05,9.45-8.44c0,0,2.64-.29,3.66,1.55,0,0-4.32-.89-5.59,1.16S381.83,233.57,382.09,230.53Z"/></g><g id="miere_borcan" data-name="miere borcan"><path class="cls-18" d="M296.58,241.5s34.15,4.4,42.66.47a5.85,5.85,0,0,1,2.48-.61c1.76,0,4.28.55,4.23,3.66a5.39,5.39,0,0,1-2.56,4.46c-1.78,1.11-4.16,3.16-3.31,5.86,1.31,4.15-2.66,7-4.81,6.63-2.57-.43-2.84-6-5.46-6.41s-7.35.63-6.08,3.81,3.81,9.56,2.65,12.49-3.27,7.61-8.45,8.88-9.77-2.29-9.77-2.29-6.12-4.09.87-11.74c0,0,7.48-6.31,3.42-8.3-3.06-1.49-5.05.83-5.86,2.07a5.46,5.46,0,0,1-1.89,1.87c-1.95,1.09-5.59,1.82-9.83-3.79-3.26-4.32-2.65-6.93-1.28-8.44a5.74,5.74,0,0,0,1.23-5.69C294.25,242.76,294.3,241.23,296.58,241.5Z"/><path class="cls-38" d="M348.16,239a6.15,6.15,0,0,0,4.24-6.72c-.4-5.49,13,.57,13,.57s4.64,1.64,1,12.53c0,0-.75,8,1.39,10.79,0,0,3.2,3.38-2.39,5,0,0-8.89,2.77-10.5-4,0,0-.31-6.56,1.71-10.6,0,0,.09-6.46-4.95-4.24S345.34,238.71,348.16,239Z"/><path class="cls-37" d="M306.13,256.92s-1.74,8.68-7.34,4.25-1-2.68-1-2.68,4.27,2.56,6-2.49S308.56,255.34,306.13,256.92Z"/><path class="cls-37" d="M323.73,262.43s5.43,10.57-2.89,15.92c0,0-3.89,3.85-7.44,1.06s2.3.09,4.53-2.78,4.52-2.76,4.72-5.2S319.84,259.88,323.73,262.43Z"/><path class="cls-37" d="M338.63,253.64a5.35,5.35,0,0,1,0,5.33c-1.64,2.74-2.79,1.55-2.79,1.55s-1.16-.72,1.18-2.48S335.64,252.89,338.63,253.64Z"/><path class="cls-37" d="M340.68,242.4s4.86-1.36,4.19,3.47a3.35,3.35,0,0,1-3.11,2.86s2.16-1.9,1.76-3.48A3.82,3.82,0,0,0,340.68,242.4Z"/><path class="cls-37" d="M365.08,246.82s-.66,6.67,2.35,10.15-4.46,3.81-4.46,3.81-4.78-.37,2.59-2.74c0,0,1.76-.28-2-5.89C363.53,252.15,362.13,244.71,365.08,246.82Z"/><path class="cls-37" d="M354.49,231.17s10.38,1.3,11.46,5.41c0,0,1.3,2.31,0,4,0,0-.86-4.33-3.24-4.69S351.6,232.12,354.49,231.17Z"/></g></svg>